# xmcd
#
# Track frame offsets:
#	150
#	17798
#	31150
#	47036
#	59439
#	72176
#	84394
#	97682
#	112570
#	123211
#	137007
#	150920
#
# Disc length: 2232 seconds
#
# Revision: 1
# Processed by: cddbd v1.5.2PL0 Copyright (c) Steve Scherf et al.
# Submitted via: audiograbber 1.83.01
#
DISCID=8208b60c
DTITLE=Ol´ Yeller - Good Luck
DYEAR=2006
DGENRE=Country Rock
TTITLE0=Jean Jacket Weather
TTITLE1=You Can Laugh
TTITLE2=I´m Not Worried
TTITLE3=Country Hilt
TTITLE4=You´re Taking Over
TTITLE5=Bottleship
TTITLE6=Wherever You´ve Been
TTITLE7=Be A New Man
TTITLE8=Diapers
TTITLE9=Lakes
TTITLE10=The Universe
TTITLE11=Go On, Now
EXTD=
EXTT0=
EXTT1=
EXTT2=
EXTT3=
EXTT4=
EXTT5=
EXTT6=
EXTT7=
EXTT8=
EXTT9=
EXTT10=
EXTT11=
PLAYORDER=
